<svg width="31" height="31" viewBox="0 0 31 31" fill="none" xmlns="http://www.w3.org/2000/svg">
<path d="M11.0756 21.9489H26.2169C26.7223 21.9489 27.1635 21.5338 27.1635 20.9758C27.1635 20.4178 26.7223 20.0026 26.2169 20.0026H11.296C10.5564 20.0026 10.1025 19.4833 9.98567 18.6923L9.77808 17.3299H26.2424C28.1367 17.3299 29.1099 16.1619 29.3823 14.3069L30.4202 7.44315C30.4477 7.28016 30.4651 7.11561 30.4722 6.95047C30.4722 6.3277 30.005 5.89924 29.2915 5.89924H8.10463L7.85774 4.25181C7.7282 3.25261 7.36506 2.74609 6.04202 2.74609H1.48724C0.96854 2.74609 0.527344 3.20113 0.527344 3.72038C0.527344 4.25181 0.96854 4.70629 1.48779 4.70629H5.87263L7.94852 18.9519C8.22143 20.7942 9.19406 21.9489 11.0756 21.9489ZM28.2663 7.85833L27.3462 14.0733C27.2421 14.8776 26.8142 15.3708 26.0486 15.3708L9.49354 15.3836L8.39027 7.85833H28.2663ZM12.1009 28.2547C12.3775 28.257 12.6519 28.2041 12.9079 28.0993C13.164 27.9945 13.3966 27.8398 13.5922 27.6441C13.7879 27.4485 13.9426 27.2159 14.0474 26.9598C14.1523 26.7038 14.2051 26.4294 14.2028 26.1528C14.2039 25.8764 14.1504 25.6025 14.0452 25.347C13.9399 25.0915 13.7852 24.8593 13.5897 24.6639C13.3943 24.4685 13.1622 24.3137 12.9066 24.2085C12.6511 24.1032 12.3772 24.0497 12.1009 24.0508C10.9206 24.0508 9.98622 24.9853 9.98622 26.1528C9.98622 27.3335 10.9206 28.2547 12.1009 28.2547ZM24.2318 28.2547C25.4126 28.2547 26.3465 27.3335 26.3465 26.1528C26.3465 24.9847 25.4126 24.0508 24.2318 24.0508C23.0643 24.0508 22.1172 24.9853 22.1172 26.1528C22.1172 27.3335 23.0643 28.2547 24.2318 28.2547Z" fill="#4B4B4B"/>
</svg>
