<svg width="17" height="16" viewBox="0 0 17 16" fill="none" xmlns="http://www.w3.org/2000/svg">
    <path d="M10.7881 8.00076L16.5062 2.61748C16.6607 2.47704 16.7839 2.30905 16.8687 2.12331C16.9534 1.93757 16.9981 1.7378 16.9999 1.53565C17.0018 1.3335 16.9609 1.13303 16.8795 0.945932C16.7982 0.758832 16.6781 0.588851 16.5262 0.445907C16.3743 0.302963 16.1937 0.189918 15.9949 0.113369C15.7962 0.0368208 15.5832 -0.00169911 15.3684 5.74816e-05C15.1536 0.00181408 14.9413 0.043812 14.744 0.123601C14.5466 0.203389 14.3681 0.31937 14.2189 0.464777L8.49919 5.84654L2.78107 0.464777C2.63186 0.31937 2.45337 0.203389 2.25602 0.123601C2.05867 0.043812 1.84641 0.00181408 1.63163 5.74816e-05C1.41685 -0.00169911 1.20385 0.0368208 1.00505 0.113369C0.806259 0.189918 0.625654 0.302963 0.473776 0.445907C0.321898 0.588851 0.201788 0.758832 0.120455 0.945932C0.0391221 1.13303 -0.00180531 1.3335 6.10742e-05 1.53565C0.00192746 1.7378 0.0465503 1.93757 0.131326 2.12331C0.216101 2.30905 0.339331 2.47704 0.493826 2.61748L6.21194 7.99924L0.493826 13.3825C0.339331 13.523 0.216101 13.6909 0.131326 13.8767C0.0465503 14.0624 0.00192746 14.2622 6.10742e-05 14.4643C-0.00180531 14.6665 0.0391221 14.867 0.120455 15.0541C0.201788 15.2412 0.321898 15.4111 0.473776 15.5541C0.625654 15.697 0.806259 15.8101 1.00505 15.8866C1.20385 15.9632 1.41685 16.0017 1.63163 15.9999C1.84641 15.9982 2.05867 15.9562 2.25602 15.8764C2.45337 15.7966 2.63186 15.6806 2.78107 15.5352L8.49919 10.1535L14.2189 15.5352C14.3681 15.6806 14.5466 15.7966 14.744 15.8764C14.9413 15.9562 15.1536 15.9982 15.3684 15.9999C15.5832 16.0017 15.7962 15.9632 15.9949 15.8866C16.1937 15.8101 16.3743 15.697 16.5262 15.5541C16.6781 15.4111 16.7982 15.2412 16.8795 15.0541C16.9609 14.867 17.0018 14.6665 16.9999 14.4643C16.9981 14.2622 16.9534 14.0624 16.8687 13.8767C16.7839 13.6909 16.6607 13.523 16.5062 13.3825L10.7881 8.00076Z" fill="#4B4B4B"/>
    </svg>
    