<svg width="10" height="10" viewBox="0 0 10 10" fill="none" xmlns="http://www.w3.org/2000/svg">
    <path fill-rule="evenodd" clip-rule="evenodd"
        d="M4.99956 5.94244L8.77089 9.71377C8.89662 9.83521 9.06503 9.90241 9.23982 9.90089C9.41462 9.89937 9.58183 9.82926 9.70544 9.70566C9.82904 9.58205 9.89915 9.41484 9.90067 9.24004C9.90219 9.06524 9.83499 8.89684 9.71356 8.77111L5.94222 4.99977L9.71356 1.22844C9.83499 1.10271 9.90219 0.934305 9.90067 0.759507C9.89915 0.584709 9.82904 0.417501 9.70544 0.293895C9.58183 0.17029 9.41462 0.100177 9.23982 0.098658C9.06503 0.0971391 8.89662 0.164335 8.77089 0.285774L4.99956 4.05711L1.22822 0.285774C1.10192 0.167337 0.934499 0.102684 0.761377 0.105496C0.588255 0.108307 0.423018 0.178362 0.30063 0.300837C0.178241 0.423312 0.108303 0.588598 0.105614 0.761722C0.102926 0.934846 0.167697 1.10222 0.286223 1.22844L4.05689 4.99977L0.285557 8.77111C0.221883 8.83261 0.171095 8.90617 0.136156 8.98751C0.101216 9.06884 0.0828256 9.15632 0.0820564 9.24484C0.0812872 9.33336 0.0981549 9.42115 0.131675 9.50308C0.165196 9.58501 0.214698 9.65944 0.277293 9.72204C0.339888 9.78463 0.414323 9.83414 0.496254 9.86766C0.578185 9.90118 0.665971 9.91805 0.754491 9.91728C0.84301 9.91651 0.93049 9.89812 1.01183 9.86318C1.09316 9.82824 1.16673 9.77745 1.22822 9.71377L4.99956 5.94244Z"
        fill="white" />
</svg>
    