<svg width="27" height="23" viewBox="0 0 27 23" fill="none" xmlns="http://www.w3.org/2000/svg">
    <path
        d="M26.25 7.26562C26.25 15.4687 14.0871 22.1086 13.5691 22.3828C13.4326 22.4563 13.28 22.4947 13.125 22.4947C12.97 22.4947 12.8174 22.4563 12.6809 22.3828C12.1629 22.1086 0 15.4687 0 7.26562C0.00217118 5.33933 0.768352 3.49255 2.13045 2.13045C3.49255 0.768352 5.33933 0.00217118 7.26562 0C9.68555 0 11.8043 1.04062 13.125 2.79961C14.4457 1.04062 16.5645 0 18.9844 0C20.9107 0.00217118 22.7575 0.768352 24.1196 2.13045C25.4816 3.49255 26.2478 5.33933 26.25 7.26562Z"
        fill="#FF3D00" />
</svg>
    