<svg width="27" height="29" viewBox="0 0 27 29" fill="none" xmlns="http://www.w3.org/2000/svg">
    <path fill-rule="evenodd" clip-rule="evenodd"
        d="M2.75569 5.06761C4.04156 3.55055 5.87756 2.7168 8.0325 2.7168C9.99675 2.7168 12.0943 3.71367 13.5 5.66392C14.8973 3.71548 16.9864 2.7168 18.9675 2.7168C21.1174 2.7168 22.95 3.54692 24.2393 5.06036C25.515 6.56111 26.1562 8.61648 26.1562 10.8966C26.1562 14.8225 24.2781 17.9817 21.9004 20.4376C19.5294 22.8881 16.551 24.7568 14.0822 26.1289C13.9014 26.2293 13.7006 26.2815 13.4971 26.2808C13.2935 26.2802 13.093 26.2268 12.9128 26.1252C10.4439 24.7387 7.4655 22.8845 5.09456 20.4467C2.71688 17.998 0.84375 14.8497 0.84375 10.8984C0.84375 8.62373 1.48163 6.56836 2.75569 5.06761ZM4.62713 6.89823C3.85931 7.80448 3.375 9.15842 3.375 10.8984C3.375 13.8419 4.752 16.3287 6.84619 18.4819C8.78006 20.472 11.2337 22.0797 13.5034 23.3847C15.7562 22.0979 18.2115 20.4775 20.1471 18.4783C22.2446 16.3087 23.625 13.8111 23.625 10.8984C23.625 9.15298 23.139 7.79905 22.3695 6.8928C21.6135 6.00648 20.4862 5.43736 18.9675 5.43736C17.3205 5.43736 15.4356 6.57561 14.7032 8.97173C14.6204 9.24437 14.4594 9.48188 14.2433 9.6503C14.0272 9.81872 13.767 9.90941 13.5 9.90941C13.233 9.90941 12.9728 9.81872 12.7567 9.6503C12.5406 9.48188 12.3796 9.24437 12.2968 8.97173C11.5661 6.57923 9.66094 5.43736 8.0325 5.43736C6.50869 5.43736 5.38313 6.00648 4.62713 6.89823Z"
        fill="#999999" />
</svg>
    