<svg width="31" height="32" viewBox="0 0 31 32" fill="none" xmlns="http://www.w3.org/2000/svg">
<g clip-path="url(#clip0_167_2110)">
<path d="M6.02691 5.33344H19.8047V14.0446H21.5269V5.33344C21.5269 4.86195 21.3455 4.40976 21.0225 4.07636C20.6995 3.74297 20.2614 3.55566 19.8047 3.55566H6.02691C5.57015 3.55566 5.13209 3.74297 4.80911 4.07636C4.48614 4.40976 4.30469 4.86195 4.30469 5.33344V26.6668C4.30469 27.1383 4.48614 27.5905 4.80911 27.9239C5.13209 28.2573 5.57015 28.4446 6.02691 28.4446H19.8047C20.2614 28.4446 20.6995 28.2573 21.0225 27.9239C21.3455 27.5905 21.5269 27.1383 21.5269 26.6668H6.02691V5.33344Z" fill="#4B4B4B"/>
<path d="M24.2485 15.3602C24.0838 15.2146 23.8719 15.1385 23.6551 15.1471C23.4384 15.1558 23.2328 15.2485 23.0795 15.4068C22.9261 15.5651 22.8363 15.7774 22.8279 16.0011C22.8195 16.2248 22.8933 16.4435 23.0343 16.6136L25.9449 19.5558H13.4588C13.2304 19.5558 13.0114 19.6494 12.8499 19.8161C12.6884 19.9828 12.5977 20.2089 12.5977 20.4447C12.5977 20.6804 12.6884 20.9065 12.8499 21.0732C13.0114 21.2399 13.2304 21.3336 13.4588 21.3336H25.9449L23.0343 24.4091C22.9442 24.4888 22.871 24.5869 22.8193 24.6971C22.7676 24.8074 22.7385 24.9275 22.734 25.05C22.7294 25.1724 22.7494 25.2944 22.7927 25.4085C22.836 25.5226 22.9016 25.6262 22.9855 25.7128C23.0695 25.7994 23.1698 25.8672 23.2803 25.9119C23.3908 25.9566 23.5091 25.9772 23.6277 25.9725C23.7463 25.9678 23.8626 25.9378 23.9695 25.8844C24.0763 25.8311 24.1713 25.7555 24.2485 25.6624L29.2774 20.5069L24.2485 15.3602Z" fill="#4B4B4B"/>
</g>
<defs>
<clipPath id="clip0_167_2110">
<rect width="31" height="32" fill="white"/>
</clipPath>
</defs>
</svg>
