<svg width="30" height="30" viewBox="0 0 30 30" fill="none" xmlns="http://www.w3.org/2000/svg">
<path d="M15.0003 1.25C19.6016 1.25 23.7503 4.45625 23.7503 8.75V14.4237C23.7503 15.2262 23.9866 16.01 24.4316 16.6775L27.1816 20.8C27.3725 21.0857 27.4823 21.4178 27.4991 21.761C27.5159 22.1042 27.4391 22.4455 27.277 22.7485C27.1148 23.0514 26.8734 23.3046 26.5786 23.481C26.2837 23.6574 25.9464 23.7504 25.6028 23.75H19.3753C19.3753 24.3245 19.2622 24.8934 19.0423 25.4242C18.8224 25.955 18.5002 26.4373 18.0939 26.8436C17.6877 27.2498 17.2054 27.5721 16.6746 27.792C16.1438 28.0118 15.5749 28.125 15.0003 28.125C14.4258 28.125 13.8569 28.0118 13.3261 27.792C12.7953 27.5721 12.313 27.2498 11.9067 26.8436C11.5005 26.4373 11.1782 25.955 10.9584 25.4242C10.7385 24.8934 10.6253 24.3245 10.6253 23.75H4.39907C4.05563 23.7503 3.71854 23.6573 3.42376 23.4811C3.12898 23.3049 2.88757 23.0519 2.72526 22.7492C2.56295 22.4466 2.48584 22.1055 2.50214 21.7624C2.51844 21.4194 2.62755 21.0872 2.81782 20.8013L5.56782 16.6775C6.01284 16.0101 6.25032 15.2259 6.25032 14.4237V8.75C6.25032 4.45625 10.3978 1.25 15.0003 1.25ZM8.12532 8.75V14.4237C8.12565 15.5959 7.779 16.742 7.12907 17.7175L4.37907 21.84L4.37532 21.8525L4.37657 21.8612L4.38157 21.8688L4.38907 21.8738L4.39782 21.875H25.6028L25.6116 21.8738L25.6191 21.8688L25.6241 21.8612L25.6253 21.8538C25.6254 21.8493 25.6241 21.8449 25.6216 21.8412L22.8728 17.7175C22.2227 16.742 21.8756 15.596 21.8753 14.4237V8.75C21.8753 5.795 18.8966 3.125 15.0003 3.125C11.1041 3.125 8.12532 5.795 8.12532 8.75ZM17.5003 23.75H12.5003C12.5003 24.413 12.7637 25.0489 13.2326 25.5178C13.7014 25.9866 14.3373 26.25 15.0003 26.25C15.6634 26.25 16.2992 25.9866 16.7681 25.5178C17.2369 25.0489 17.5003 24.413 17.5003 23.75Z" fill="#4B4B4B"/>
</svg>
