<svg width="32" height="32" viewBox="0 0 32 32" fill="none" xmlns="http://www.w3.org/2000/svg">
<path d="M15.0003 3.25C19.6016 3.25 23.7503 6.45625 23.7503 10.75V16.4237C23.7503 17.2262 23.9866 18.01 24.4316 18.6775L27.1816 22.8C27.3725 23.0857 27.4823 23.4178 27.4991 23.761C27.5159 24.1042 27.4391 24.4455 27.277 24.7485C27.1148 25.0514 26.8734 25.3046 26.5786 25.481C26.2837 25.6574 25.9464 25.7504 25.6028 25.75H19.3753C19.3753 26.3245 19.2622 26.8934 19.0423 27.4242C18.8224 27.955 18.5002 28.4373 18.0939 28.8436C17.6877 29.2498 17.2054 29.5721 16.6746 29.792C16.1438 30.0118 15.5749 30.125 15.0003 30.125C14.4258 30.125 13.8569 30.0118 13.3261 29.792C12.7953 29.5721 12.313 29.2498 11.9067 28.8436C11.5005 28.4373 11.1782 27.955 10.9584 27.4242C10.7385 26.8934 10.6253 26.3245 10.6253 25.75H4.39907C4.05563 25.7503 3.71854 25.6573 3.42376 25.4811C3.12898 25.3049 2.88757 25.0519 2.72526 24.7492C2.56295 24.4466 2.48584 24.1055 2.50214 23.7624C2.51844 23.4194 2.62755 23.0872 2.81782 22.8013L5.56782 18.6775C6.01284 18.0101 6.25032 17.2259 6.25032 16.4237V10.75C6.25032 6.45625 10.3978 3.25 15.0003 3.25ZM8.12532 10.75V16.4237C8.12565 17.5959 7.779 18.742 7.12907 19.7175L4.37907 23.84L4.37532 23.8525L4.37657 23.8612L4.38157 23.8688L4.38907 23.8738L4.39782 23.875H25.6028L25.6116 23.8738L25.6191 23.8688L25.6241 23.8612L25.6253 23.8538C25.6254 23.8493 25.6241 23.8449 25.6216 23.8412L22.8728 19.7175C22.2227 18.742 21.8756 17.596 21.8753 16.4237V10.75C21.8753 7.795 18.8966 5.125 15.0003 5.125C11.1041 5.125 8.12532 7.795 8.12532 10.75ZM17.5003 25.75H12.5003C12.5003 26.413 12.7637 27.0489 13.2326 27.5178C13.7014 27.9866 14.3373 28.25 15.0003 28.25C15.6634 28.25 16.2992 27.9866 16.7681 27.5178C17.2369 27.0489 17.5003 26.413 17.5003 25.75Z" fill="#4B4B4B"/>
<circle cx="28" cy="4" r="4" fill="#FF3D00"/>
</svg>
