<svg width="36" height="36" viewBox="0 0 36 36" fill="none" xmlns="http://www.w3.org/2000/svg">
<path d="M33.5838 2.68973C33.571 2.62755 33.5407 2.57031 33.4965 2.52473C33.4523 2.47915 33.396 2.44712 33.3342 2.43239C29.216 1.42551 19.7006 5.01356 14.5453 10.1668C13.6258 11.0788 12.7876 12.0693 12.0401 13.1269C10.4503 12.9863 8.86054 13.1037 7.50562 13.6943C3.68273 15.3769 2.56968 19.7672 2.2596 21.6558C2.24202 21.7592 2.24865 21.8652 2.27898 21.9656C2.30932 22.066 2.36253 22.1579 2.43442 22.2343C2.50632 22.3106 2.59494 22.3692 2.69333 22.4055C2.79171 22.4418 2.89716 22.4547 3.0014 22.4433L9.14038 21.7662C9.14477 22.2291 9.17269 22.6914 9.22406 23.1514C9.25495 23.4708 9.39675 23.7693 9.62484 23.9951L12.0021 26.3668C12.2281 26.5946 12.5265 26.7363 12.8459 26.7675C13.3033 26.8187 13.763 26.8466 14.2233 26.8512L13.5497 32.9825C13.5384 33.0867 13.5515 33.1921 13.5878 33.2904C13.6242 33.3887 13.6828 33.4772 13.759 33.5491C13.8353 33.621 13.9272 33.6742 14.0275 33.7046C14.1279 33.735 14.2338 33.7417 14.3372 33.7243C16.2223 33.4219 20.6203 32.3089 22.293 28.486C22.8837 27.1311 23.0046 25.549 22.8682 23.967C23.9284 23.2195 24.9214 22.381 25.8361 21.4611C31.0076 16.3156 34.5752 7.01255 33.5838 2.68973ZM20.6766 15.3228C20.2043 14.8509 19.8827 14.2495 19.7523 13.5948C19.6219 12.94 19.6886 12.2613 19.944 11.6445C20.1993 11.0276 20.6319 10.5004 21.187 10.1295C21.742 9.75851 22.3947 9.56051 23.0623 9.56051C23.7299 9.56051 24.3825 9.75851 24.9375 10.1295C25.4926 10.5004 25.9252 11.0276 26.1806 11.6445C26.4359 12.2613 26.5027 12.94 26.3722 13.5948C26.2418 14.2495 25.9202 14.8509 25.448 15.3228C25.1348 15.6364 24.7629 15.8851 24.3536 16.0549C23.9442 16.2246 23.5054 16.312 23.0623 16.312C22.6191 16.312 22.1803 16.2246 21.7709 16.0549C21.3616 15.8851 20.9897 15.6364 20.6766 15.3228Z" fill="#6372FF"/>
<path d="M11.8406 28.0849C11.4553 28.4709 10.8373 28.6214 10.0934 28.7501C8.42203 29.0348 6.94617 27.5906 7.24641 25.901C7.36102 25.2605 7.69992 24.3626 7.91086 24.1516C7.95696 24.1064 7.98765 24.0478 7.99857 23.9842C8.00948 23.9205 8.00006 23.8551 7.97165 23.7971C7.94324 23.7391 7.89727 23.6915 7.84029 23.6611C7.78331 23.6308 7.7182 23.6191 7.65422 23.6278C6.7196 23.7422 5.8501 24.1659 5.18414 24.8316C3.53109 26.486 3.375 32.625 3.375 32.625C3.375 32.625 9.5175 32.4689 11.1705 30.8145C11.8383 30.149 12.2625 29.2782 12.375 28.3423C12.401 28.0484 12.0431 27.8733 11.8406 28.0849Z" fill="#6372FF"/>
</svg>
