<svg width="24" height="24" viewBox="0 0 24 24" fill="none" xmlns="http://www.w3.org/2000/svg">
<rect width="24" height="24" fill="white"/>
<path fill-rule="evenodd" clip-rule="evenodd" d="M17.2491 10.5001C17.2491 11.3865 17.0745 12.2643 16.7353 13.0832C16.3961 13.9021 15.8989 14.6463 15.2721 15.2731C14.6453 15.8999 13.9012 16.3971 13.0822 16.7363C12.2633 17.0755 11.3855 17.2501 10.4991 17.2501C9.61269 17.2501 8.73495 17.0755 7.916 16.7363C7.09705 16.3971 6.35294 15.8999 5.72614 15.2731C5.09935 14.6463 4.60215 13.9021 4.26293 13.0832C3.92371 12.2643 3.74911 11.3865 3.74911 10.5001C3.74911 8.70988 4.46027 6.99299 5.72614 5.72712C6.99201 4.46125 8.7089 3.75009 10.4991 3.75009C12.2893 3.75009 14.0062 4.46125 15.2721 5.72712C16.538 6.99299 17.2491 8.70988 17.2491 10.5001ZM16.0191 17.6101C14.2107 19.0141 11.9352 19.676 9.65581 19.4613C7.37646 19.2466 5.26463 18.1712 3.75024 16.4542C2.23585 14.7372 1.43274 12.5075 1.50442 10.2192C1.57609 7.93089 2.51716 5.7559 4.13604 4.13702C5.75492 2.51814 7.92992 1.57707 10.2182 1.50539C12.5066 1.43372 14.7362 2.23682 16.4532 3.75121C18.1702 5.26561 19.2456 7.37744 19.4603 9.65679C19.6751 11.9361 19.0131 14.2117 17.6091 16.0201L21.7941 20.2051C21.9046 20.3081 21.9933 20.4323 22.0548 20.5703C22.1163 20.7083 22.1493 20.8573 22.152 21.0083C22.1547 21.1594 22.1269 21.3094 22.0703 21.4495C22.0137 21.5896 21.9295 21.7168 21.8227 21.8236C21.7158 21.9305 21.5886 22.0147 21.4485 22.0713C21.3084 22.1279 21.1584 22.1556 21.0073 22.153C20.8563 22.1503 20.7073 22.1172 20.5693 22.0558C20.4313 21.9943 20.3071 21.9056 20.2041 21.7951L16.0191 17.6101Z" fill="#4B4B4B"/>
</svg>
