<svg width="18" height="18" viewBox="0 0 18 18" fill="none" xmlns="http://www.w3.org/2000/svg">
    <path
        d="M6 7.125C5.75136 7.125 5.5129 7.22377 5.33709 7.39959C5.16127 7.5754 5.0625 7.81386 5.0625 8.0625C5.0625 8.31114 5.16127 8.5496 5.33709 8.72541C5.5129 8.90123 5.75136 9 6 9C6.24864 9 6.4871 8.90123 6.66291 8.72541C6.83873 8.5496 6.9375 8.31114 6.9375 8.0625C6.9375 7.81386 6.83873 7.5754 6.66291 7.39959C6.4871 7.22377 6.24864 7.125 6 7.125ZM9 7.125C8.75136 7.125 8.5129 7.22377 8.33709 7.39959C8.16127 7.5754 8.0625 7.81386 8.0625 8.0625C8.0625 8.31114 8.16127 8.5496 8.33709 8.72541C8.5129 8.90123 8.75136 9 9 9C9.24864 9 9.4871 8.90123 9.66291 8.72541C9.83873 8.5496 9.9375 8.31114 9.9375 8.0625C9.9375 7.81386 9.83873 7.5754 9.66291 7.39959C9.4871 7.22377 9.24864 7.125 9 7.125ZM11.0625 8.0625C11.0625 7.81386 11.1613 7.5754 11.3371 7.39959C11.5129 7.22377 11.7514 7.125 12 7.125C12.2486 7.125 12.4871 7.22377 12.6629 7.39959C12.8387 7.5754 12.9375 7.81386 12.9375 8.0625C12.9375 8.31114 12.8387 8.5496 12.6629 8.72541C12.4871 8.90123 12.2486 9 12 9C11.7514 9 11.5129 8.90123 11.3371 8.72541C11.1613 8.5496 11.0625 8.31114 11.0625 8.0625Z"
        fill="#666666" />
    <path fill-rule="evenodd" clip-rule="evenodd"
        d="M12.4754 3.44483C10.4549 3.27251 8.42394 3.26248 6.40189 3.41483L6.25714 3.42608C5.32745 3.49624 4.45857 3.91504 3.82453 4.59859C3.19049 5.28214 2.83808 6.17999 2.83789 7.11233V13.5001C2.83798 13.5973 2.86327 13.6929 2.9113 13.7774C2.95934 13.862 3.02847 13.9326 3.11195 13.9825C3.19544 14.0324 3.29042 14.0597 3.38764 14.0619C3.48485 14.0641 3.58098 14.0411 3.66664 13.9951L6.59914 12.4193C6.73585 12.3458 6.88868 12.3074 7.04389 12.3076H13.7759C14.6249 12.3076 15.3524 11.7001 15.5046 10.8653C15.8136 9.17258 15.8376 7.44008 15.5766 5.73908L15.5001 5.23733C15.4321 4.79406 15.2171 4.38651 14.8895 4.08019C14.562 3.77386 14.141 3.58654 13.6941 3.54833L12.4754 3.44483ZM6.48739 4.53683C8.44949 4.38879 10.4203 4.39832 12.3809 4.56533L13.5989 4.66958C14.0009 4.70408 14.3279 5.00933 14.3886 5.40833L14.4659 5.90933C14.7075 7.48684 14.6847 9.09357 14.3984 10.6636C14.3719 10.8092 14.2951 10.9409 14.1815 11.0357C14.0679 11.1305 13.9246 11.1825 13.7766 11.1826H7.04389C6.70306 11.1826 6.36757 11.2672 6.06739 11.4286L3.96289 12.5596V7.11233C3.96293 6.46372 4.20798 5.83905 4.64898 5.36342C5.08998 4.88779 5.69438 4.59631 6.34114 4.54733L6.48739 4.53683Z"
        fill="#666666" />
</svg>
    